HIERARCHY
ROOT Bip001_Pelvis
{
  OFFSET 7.937 94.8971 -8.5489
  CHANNELS 6 Xposition Yposition Zposition Zrotation Xrotation Yrotation
  JOINT Bip001_Spine
  {
    OFFSET 1.44608e-005 10.4157 -0.0118244
    CHANNELS 3 Zrotation Xrotation Yrotation
    JOINT Bip001_L_Thigh
    {
      OFFSET 11.2582 -10.4157 0.0118432
      CHANNELS 3 Zrotation Xrotation Yrotation
      JOINT Bip001_L_Calf
      {
        OFFSET -0.720717 -44.8687 0.366937
        CHANNELS 3 Zrotation Xrotation Yrotation
        JOINT Bip001_L_Foot
        {
          OFFSET -0.664439 -41.3745 -3.62995
          CHANNELS 3 Zrotation Xrotation Yrotation
          JOINT Bip001_L_Toe0
          {
            OFFSET 0.0541047 -10.4146 13.4033
            CHANNELS 3 Zrotation Xrotation Yrotation
            End Site
            {
              OFFSET -1.04503e-005 0 7.70137
            }
          }
        }
      }
    }
    JOINT Bip001_R_Thigh
    {
      OFFSET -11.2582 -10.4156 0.0118122
      CHANNELS 3 Zrotation Xrotation Yrotation
      JOINT Bip001_R_Calf
      {
        OFFSET 0.72059 -44.8687 0.36676
        CHANNELS 3 Zrotation Xrotation Yrotation
        JOINT Bip001_R_Foot
        {
          OFFSET 0.664321 -41.3745 -3.62979
          CHANNELS 3 Zrotation Xrotation Yrotation
          JOINT Bip001_R_Toe0
          {
            OFFSET -0.05417 -10.4146 13.4033
            CHANNELS 3 Zrotation Xrotation Yrotation
            End Site
            {
              OFFSET -1.04873e-005 0 7.70137
            }
          }
        }
      }
    }
    JOINT Bip001_Spine1
    {
      OFFSET 1.90638e-005 14.8539 1.10727
      CHANNELS 3 Zrotation Xrotation Yrotation
      JOINT Bip001_Spine2
      {
        OFFSET 2.28934e-005 14.7848 -1.7233
        CHANNELS 3 Zrotation Xrotation Yrotation
        JOINT Bip001_Neck
        {
          OFFSET 2.24514e-005 15.6905 -0.498826
          CHANNELS 3 Zrotation Xrotation Yrotation
          JOINT Bip001_L_Clavicle
          {
            OFFSET 6.17691 -0.000591152 0.00852867
            CHANNELS 3 Zrotation Xrotation Yrotation
            JOINT Bip001_L_UpperArm
            {
              OFFSET 11.773 -0.0611878 0.00197697
              CHANNELS 3 Zrotation Xrotation Yrotation
              JOINT Bip001_L_Forearm
              {
                OFFSET 26.4515 0.0817568 -2.19579
                CHANNELS 3 Zrotation Xrotation Yrotation
                JOINT Bip001_L_Hand
                {
                  OFFSET 32.8677 0.156744 1.67112
                  CHANNELS 3 Zrotation Xrotation Yrotation
                  JOINT Bip001_L_Finger0
                  {
                    OFFSET 6.16268 -2.25226 6.01674
                    CHANNELS 3 Zrotation Xrotation Yrotation
                    End Site
                    {
                      OFFSET 4.30499 -1.46662 0.618148
                    }
                  }
                  JOINT Bip001_L_Finger1
                  {
                    OFFSET 11.2957 -0.718374 -0.201963
                    CHANNELS 3 Zrotation Xrotation Yrotation
                    End Site
                    {
                      OFFSET 6.31952 -0.405163 -0.0802303
                    }
                  }
                }
              }
            }
          }
          JOINT Bip001_R_Clavicle
          {
            OFFSET -6.17691 -0.000574027 0.00851165
            CHANNELS 3 Zrotation Xrotation Yrotation
            JOINT Bip001_R_UpperArm
            {
              OFFSET -11.773 -0.0611516 0.00194365
              CHANNELS 3 Zrotation Xrotation Yrotation
              JOINT Bip001_R_Forearm
              {
                OFFSET -26.4514 0.0822334 -2.19736
                CHANNELS 3 Zrotation Xrotation Yrotation
                JOINT Bip001_R_Hand
                {
                  OFFSET -32.8677 0.156817 1.67144
                  CHANNELS 3 Zrotation Xrotation Yrotation
                  JOINT Bip001_R_Finger0
                  {
                    OFFSET -6.1627 -2.25224 6.0167
                    CHANNELS 3 Zrotation Xrotation Yrotation
                    End Site
                    {
                      OFFSET -4.30499 -1.46662 0.618134
                    }
                  }
                  JOINT Bip001_R_Finger1
                  {
                    OFFSET -11.2958 -0.718344 -0.201994
                    CHANNELS 3 Zrotation Xrotation Yrotation
                    End Site
                    {
                      OFFSET -6.31952 -0.405146 -0.0802475
                    }
                  }
                }
              }
            }
          }
          JOINT Bip001_Head
          {
            OFFSET 1.11782e-005 11.4912 2.09908
            CHANNELS 3 Zrotation Xrotation Yrotation
            End Site
            {
              OFFSET 2.95144e-005 21.2823 -2.83069e-005
            }
          }
        }
      }
    }
  }
}
MOTION
Frames:	9
Frame Time:	0.04
9.12336 89.7595 -7.21394 -5.63442 1.50119 27.7761 -1.99822 1.51345 2.51309 3.76768 -31.3423 -1.92442 8.87804 43.0868 -24.1319 1.33888 -18.1274 -0.142413 0.444116 -9.90565 0.681184 -7.51911 -11.6441 -6.73836 14.0402 33.3184 -14.9397 -5.12824 -22.544 -18.6525 4.14831 -11.7979 -2.49147 -3.30663 2.95346 5.07636 -3.30664 2.95347 5.07639 -2.07423 -6.38335 -5.64678 -25.7669 10.1809 -8.7295 -45.5327 40.4198 9.47836 16.7299 7.11986 -27.7598 -2.55273 0.54424 -0.703403 1.59028e-015 6.36111e-015 -0 7.95139e-016 3.18056e-015 -0 8.19357 10.2507 21.8964 15.9124 -10.5521 41.2921 -60.0419 11.2601 62.2213 -40.0524 19.3307 -5.78816 -7.95139e-016 0 1.11319e-014 -1.59028e-015 0 8.15017e-015 -1.64343 1.26133 -5.55434 
9.44861 91.4477 -7.19151 -5.36026 2.46375 28.7679 -2.13634 1.27479 2.5075 3.2722 -28.8978 -1.22854 7.85677 36.9034 -23.4904 0.43626 -14.7878 -1.12232 0.719921 -9.92807 0.328973 -6.54989 -9.27777 -7.49918 10.3044 27.5288 -12.8706 -3.98938 -19.1963 -18.9514 4.00449 -11.7893 -2.2238 -3.55663 2.46993 5.07891 -3.55665 2.46993 5.07893 -0.627815 -4.62356 -6.44155 -26.9973 8.08949 -8.82957 -48.0467 40.3733 12.3491 17.7952 7.80129 -28.197 -2.05072 0.692299 -0.513751 2.38542e-015 3.18055e-015 -1.59028e-015 0 3.18056e-015 -0 9.12396 8.66469 19.8613 18.3461 -10.2712 41.0573 -60.6614 10.2532 66.6368 -35.0495 13.7214 -4.77912 -3.45699e-015 3.18055e-015 -7.30689e-015 -3.4601e-015 3.18056e-015 -6.70588e-015 -3.0002 0.570423 -5.72295 
9.94682 92.8582 -7.08734 -4.74618 2.89153 28.5023 -2.18492 1.06752 2.43418 2.76285 -25.6161 -0.940642 6.79903 31.1278 -21.7682 -0.307426 -12.0551 -1.67828 0.871049 -9.97762 0.0825884 -5.10326 -6.71972 -8.36377 5.26 22.1066 -10.3567 -1.9961 -15.8579 -18.6456 3.82394 -11.8586 -1.7453 -3.67259 2.05504 4.93062 -3.67254 2.05503 4.93084 -0.626618 -2.57669 -6.76845 -26.8264 5.94991 -8.89245 -50.2212 39.4177 14.533 16.5219 7.0618 -27.5229 -0.925382 0.825185 -0.374732 -1.59028e-015 0 -0 -1.59028e-015 6.36111e-015 -0 8.99882 6.60092 20.3243 17.2905 -7.27958 42.3298 -56.8874 10.4389 65.4605 -30.0894 14.3023 -7.76473 3.18055e-015 6.36111e-015 -3.97569e-016 5.56597e-015 3.18056e-015 3.18055e-015 -2.62072 -0.222741 -6.19341 
10.569 93.8997 -7.0449 -3.97905 3.10711 26.9673 -2.19468 0.82061 2.42512 2.43039 -22.2973 -0.280215 5.68551 26.2772 -19.8539 -0.525841 -9.81519 -1.6774 0.81897 -10.0328 -0.151517 -4.61356 -4.18047 -9.06652 2.11538 16.9237 -9.05607 -0.522138 -12.7072 -17.2252 3.69531 -11.9763 -1.17943 -3.72824 1.5604 4.9071 -3.72812 1.56042 4.90621 -1.39769 -1.4885 -6.99832 -26.0186 4.40476 -7.41223 -52.1858 39.4873 16.1046 16.0889 7.09835 -26.4912 -2.7288 0.450454 0.282092 -0 0 2.38542e-015 1.76556e-031 -6.36111e-015 1.59028e-015 9.48507 5.71383 21.6608 18.4541 -5.59807 40.7824 -52.1325 7.87461 68.9311 -27.9753 10.7598 -7.7436 -0 0 7.15625e-015 1.59028e-015 3.18056e-015 3.97569e-015 -1.93769 -0.466902 -6.81788 
11.2517 94.6174 -7.02679 -3.15042 3.37149 24.7458 -2.12016 0.569578 2.47243 2.15919 -19.3816 0.591723 4.28138 22.3384 -17.7535 -0.336134 -8.07047 -1.60337 0.794657 -10.0553 -0.279675 -5.26352 -2.06884 -9.67594 0.94486 12.4998 -7.79339 0.117812 -10.0687 -15.8672 3.33942 -12.1327 -0.705023 -3.65671 1.05852 4.98972 -3.65649 1.05852 4.98976 -3.28771 -1.284 -6.81536 -24.8829 4.07413 -6.17376 -53.8638 39.9028 17.8777 16.1336 6.98543 -25.5033 -5.11528 0.109001 0.459992 3.97569e-016 -6.36111e-015 -7.95139e-016 -0 -3.18056e-015 -0 12.1689 6.04289 22.1064 18.8885 -5.39778 38.2367 -55.904 6.66207 75.8728 -28.7293 9.63561 -6.98455 -2.38542e-015 -6.36111e-015 -2.78298e-015 -3.97569e-015 -3.18056e-015 -0 -0.625144 -0.456949 -7.4675 
11.7513 94.9114 -7.18676 -2.51014 3.75486 22.5585 -2.04316 0.321763 2.50547 2.1056 -17.8356 1.2443 2.65402 20.3489 -15.9744 0.326318 -7.13411 -1.21612 0.715407 -10.0296 -0.330785 -6.17161 -1.57063 -10.7459 0.0844189 10.7644 -6.5875 1.22618 -8.83497 -14.1365 2.76736 -12.1178 -0.21886 -3.62375 0.562885 5.04724 -3.62375 0.562875 5.04724 -3.59888 -1.5245 -6.91866 -24.7449 4.08826 -5.38192 -54.9064 39.5625 18.6909 15.5368 7.76879 -24.367 -6.97933 -0.122521 0.133889 -0 -3.18055e-015 -0 1.98785e-016 -3.18056e-015 -0 14.7006 6.96222 21.8348 17.5266 -4.72663 36.3853 -57.7497 5.65592 82.4506 -31.8877 11.6246 -6.40011 6.4605e-015 -6.36111e-015 2.83268e-015 4.57205e-015 -3.18056e-015 1.59028e-015 -0.922814 -0.575839 -7.58405 
12.2053 94.9982 -7.38564 -1.68391 3.55835 20.3905 -1.92853 0.227362 2.47086 1.85074 -16.4553 1.49896 1.44123 19.4094 -13.9046 0.82717 -6.73393 -0.966962 0.717275 -10.0504 -0.347734 -7.50883 -1.38128 -11.3347 0.00865955 10.554 -5.51702 2.20028 -8.44016 -12.6682 1.89815 -12.0707 0.190639 -3.56119 0.37699 4.96717 -3.5612 0.377174 4.96717 -3.62069 -2.41379 -6.88249 -24.9477 4.97538 -5.24006 -56.1226 38.3935 19.7692 15.1953 7.76965 -23.8092 -8.2669 -0.341193 0.0884547 -2.98177e-016 -1.27222e-014 3.97569e-016 -8.94531e-016 -1.27222e-014 -0 16.8324 8.38541 21.1824 16.3038 -1.86381 32.8608 -57.3083 2.01046 88.1233 -31.9954 12.282 -6.69998 6.4605e-016 3.18055e-015 -2.18663e-015 3.47873e-016 3.18056e-015 -3.77691e-015 -1.13449 0.0811876 -7.45144 
12.5709 95.0561 -7.4073 -0.833686 2.83403 18.0192 -1.7818 0.256271 2.28178 1.68975 -14.7441 1.56209 0.422171 18.6711 -11.4404 1.13876 -6.61192 -0.635707 0.699978 -10.0735 -0.390089 -8.46331 -0.959094 -11.3421 -0.490283 10.4027 -4.16432 3.28683 -8.083 -11.2515 1.25234 -11.9814 0.260103 -3.38947 0.444392 4.58238 -3.38947 0.444395 4.58239 -4.18005 -3.06835 -6.35882 -25.0264 5.72181 -4.99278 -56.5525 37.4823 19.9414 14.1954 7.18784 -22.995 -7.58778 -0.388296 0.279515 -1.98785e-016 3.18055e-015 -1.98785e-016 -3.97569e-016 -6.36111e-015 1.98785e-016 20.2983 9.86306 20.9565 15.0522 3.74562 28.7974 -55.7759 -0.64007 91.1391 -33.4789 12.1532 -5.51597 3.18055e-015 6.36111e-015 -5.96354e-016 1.59028e-015 9.54167e-015 4.57205e-015 -0.625907 0.439206 -7.16753 
12.7973 95.1348 -7.4537 -0.13204 2.33345 15.4373 -1.67492 0.241351 2.1232 1.79463 -13.2369 1.1643 -1.07711 17.7282 -8.15168 1.49565 -6.36783 -0.379591 0.675356 -10.1037 -0.458562 -9.34111 -1.08325 -10.078 -0.576596 10.5357 -2.71916 3.48824 -7.86757 -10.9674 1.05328 -11.9282 0.100985 -3.20339 0.423287 4.26319 -3.20339 0.42337 4.2632 -4.81959 -3.14348 -5.90442 -25.283 6.02996 -5.19058 -56.4938 37.2231 19.7215 13.1915 6.35213 -21.8863 -6.53152 -0.374501 -0.00350821 1.98785e-016 0 7.95139e-016 5.96354e-016 0 9.93923e-016 24.4936 10.9302 20.8109 15.6826 10.2992 22.9732 -54.1639 -1.48992 92.6131 -32.5526 9.4126 -2.14768 -4.77083e-015 3.18055e-015 -0 -2.38542e-015 3.18056e-015 -0 0.193004 0.1365 -7.0802 
